# xmcd
#
# Track frame offsets: 
#        150
#        11355
#        22635
#        35192
#        46135
#        57047
#        68432
#        80187
#        91140
#        100662
#        112322
#        120802
#        130930
#        140345
#        150920
#
# Disc length: 2130 seconds
#
# Revision: 0
# Processed by: cddbd v1.5.2PL0 Copyright (c) Steve Scherf et al.
# Submitted via: ExactAudioCopy v0.99pb3
#
DISCID=ac08500f
DTITLE=Paul Anka - The best of Paul Anka
DYEAR=1900
DGENRE=Pop
TTITLE0=Crazy Love
TTITLE1=You are my destiny
TTITLE2=Puppy love
TTITLE3=Lonely Boy
TTITLE4=Summer's gone
TTITLE5=Time to cry
TTITLE6=Put your head on my shoulder
TTITLE7=don't gamble with love
TTITLE8=My hometown
TTITLE9=Kissin' on the phone
TTITLE10=Dance on little girl
TTITLE11=Adam and eve
TTITLE12=Cinderella
TTITLE13=Diana
TTITLE14=The longest day
EXTD=
EXTT0=
EXTT1=
EXTT2=
EXTT3=
EXTT4=
EXTT5=
EXTT6=
EXTT7=
EXTT8=
EXTT9=
EXTT10=
EXTT11=
EXTT12=
EXTT13=
EXTT14=
PLAYORDER=
